<?xml version="1.0" encoding="UTF-8"?>
<!DOCTYPE svg PUBLIC "-//W3C//DTD SVG 1.1//EN" "http://www.w3.org/Graphics/SVG/1.1/DTD/svg11.dtd">
<!-- Creator: CorelDRAW -->
<svg xmlns="http://www.w3.org/2000/svg" xml:space="preserve" width="279.4mm" height="215.9mm" version="1.1" style="shape-rendering:geometricPrecision; text-rendering:geometricPrecision; image-rendering:optimizeQuality; fill-rule:evenodd; clip-rule:evenodd"
viewBox="0 0 27940 21590"
 xmlns:xlink="http://www.w3.org/1999/xlink"
 xmlns:xodm="http://www.corel.com/coreldraw/odm/2003">
 <defs>
  <style type="text/css">
   <![CDATA[
    .fil0 {fill:white}
   ]]>
  </style>
 </defs>
 <g id="Capa_x0020_1">
  <metadata id="CorelCorpID_0Corel-Layer"/>
  <path class="fil0" d="M15669.93 13130.72c-243.45,-197.89 -486.96,-395.81 -730.43,-593.68 -40.51,269.26 -81.08,538.54 -121.55,807.79 -2.51,16.57 3.35,32.03 16.17,42.79 12.86,10.75 29.06,13.87 44.96,8.52 263.6,-88.46 527.25,-176.92 790.85,-265.42zm-2260.39 -4445.86c371.4,0 672.48,301.07 672.48,672.47 0,371.4 -301.08,672.48 -672.48,672.48 -371.4,0 -672.48,-301.08 -672.48,-672.48 0,-371.4 301.08,-672.47 672.48,-672.47zm9.15 -1294.18c1589.22,0 2924.01,1089 3299.07,2561.45l-5.41 6.99 -1.96 -1.61 -152.6 188.52c-122.4,151.21 -246,302.47 -370.12,453.91 -100.12,-1442.06 -1301.48,-2580.84 -2768.98,-2580.84 -1533.09,0 -2775.9,1242.81 -2775.9,2775.9 0,794.17 333.55,1510.42 868.16,2016.34 -9.12,-199.35 -18.43,-381.57 -35.75,-483.58 -249.77,-10.46 -223.36,-59.03 -254.33,-469.36 -16.79,-222.49 -32.87,-448.17 -46.43,-675.6 -18.54,-311.24 21.9,-354.21 291.5,-433.78 201.68,-59.52 419.01,-56.48 637.78,-59.02 0.89,496.27 62.31,1090.93 105.84,1589.84 51.91,595.21 226.21,273.55 197.79,637.5 -8.74,112.04 -5.23,293.53 -17.04,456.71 143.77,57.37 293.48,103.02 447.92,135.88 -11.06,-245.9 -45.24,-995.06 -90.21,-917.66l-169.49 -35.43c-145.96,-48.98 -132.14,-341.12 -144.48,-530.12 -18.27,-279.77 -43.96,-564.85 -63.74,-843.27 -26.22,-369.21 -93.49,-504.31 220.67,-644.97 226.18,-101.27 515.88,-131.48 793.35,-133.88 260.82,-2.27 591.13,27.24 812.24,114.77 334.1,132.27 293.67,254.69 265.46,627.89 -21.61,285.97 -37.35,568.67 -61.21,852.22 -46.94,557.95 -6.7,554.06 -337.88,579.77 -24.48,151 -43.91,548.05 -66.23,931.21 156.3,-33.11 307.74,-79.33 453.11,-137.53 -18.9,-220.91 -30.02,-515.73 -28.71,-636.51 251.3,-173.05 211.42,-539.49 239.95,-917.22 24.61,-325.75 84.18,-813.73 65.51,-1126.9 268.53,-8.48 761.73,19.64 901.48,177.6 37.48,42.37 43.19,193.66 36.16,368.92 -325.62,399.19 -647.99,800.92 -954.44,1207.52 -63.24,420.42 -63.28,420.26 -129.8,862.7 -14.89,98.97 22.89,198.81 99.62,263.07 76.94,64.45 180.91,84.12 276.07,52.18l645.1 -216.5c-116.18,97.12 -238.88,186.72 -367.45,267.87l-1.03 0.64 -1.02 0.65 -1.03 0.64c-8.54,5.37 -17.09,10.72 -25.68,16.03l-1.03 0.64 -1.03 0.64c-375.82,231.66 -800.01,392.37 -1253.99,463.31l-0.01 0.08 -7.93 1.23 -7.34 1.12c-25.6,3.88 -51.3,7.47 -77.08,10.79l-7.49 0.96c-26.24,3.31 -52.57,6.31 -78.99,9.02l-5.5 0.56c-27.14,2.73 -54.37,5.16 -81.69,7.26l-3.41 0.26c-27.96,2.12 -56,3.89 -84.14,5.33l-2.15 0.11c-28.5,1.44 -57.08,2.53 -85.76,3.26l-0.84 0.02c-29.07,0.74 -58.23,1.11 -87.48,1.11 -29.35,0 -58.61,-0.37 -87.77,-1.11l-0.21 0c-29.1,-0.74 -58.1,-1.84 -87,-3.31l-0.4 -0.02c-28.88,-1.47 -57.64,-3.3 -86.32,-5.48l-0.23 -0.01 -0.23 -0.02c-28.69,-2.2 -57.3,-4.73 -85.79,-7.62l-0.26 -0.03c-28.23,-2.87 -56.36,-6.08 -84.39,-9.64l-2 -0.25c-27.71,-3.54 -55.32,-7.4 -82.83,-11.6l-2.08 -0.31 -15.74 -2.45 -0.01 -0.16c-452.07,-71.41 -874.5,-231.8 -1248.9,-462.64l-0.97 -0.6 -0.97 -0.6c-10.67,-6.58 -21.29,-13.2 -31.88,-19.9l-0.96 -0.61 -0.97 -0.61c-952.23,-603.49 -1584.41,-1666.55 -1584.41,-2877.35 0,-1880.16 1524.16,-3404.32 3404.32,-3404.32zm1446.12 2041.5c282.6,0 511.69,229.1 511.69,511.69 0,282.61 -229.09,511.7 -511.69,511.7 -282.61,0 -511.71,-229.09 -511.71,-511.7 0,-282.59 229.1,-511.69 511.71,-511.69zm-2882.19 0c282.61,0 511.69,229.1 511.69,511.69 0,282.61 -229.08,511.7 -511.69,511.7 -282.61,0 -511.7,-229.09 -511.7,-511.7 0,-282.59 229.09,-511.69 511.7,-511.69zm3017.2 3021c581.67,-718.58 1163.37,-1437.16 1745.03,-2155.73 247.57,203.61 495.2,407.22 742.78,610.83 -583.52,713.17 -1167.11,1426.4 -1750.64,2139.57 -245.71,-198.2 -491.46,-396.46 -737.17,-594.67zm2110.44 -2614.8c-96.98,125.28 -194.05,250.54 -291.07,375.83 245.1,199.21 490.21,398.42 735.31,597.64 101.32,-124.65 202.64,-249.31 303.91,-373.91 97.44,-119.88 79.09,-297.08 -40.74,-394.52 -102.96,-83.68 -205.86,-167.33 -308.77,-250.96 -60.84,-49.45 -131.1,-69.96 -208.97,-60.99 -77.89,8.94 -141.66,44.9 -189.67,106.91zm306.21 1299.15c30.2,26.67 60.35,53.34 90.55,80.02 -152.44,187.55 -304.87,375.09 -457.34,562.69 -32.6,40.16 -26.47,99.49 13.65,132.15 13.89,11.29 27.85,22.63 41.75,33.94 40.16,32.6 99.49,26.47 132.14,-13.65 193.43,-237.98 386.8,-475.95 580.17,-713.88 -93.72,-76.16 -187.49,-152.38 -281.21,-228.55 -39.9,49.09 -79.81,98.18 -119.71,147.28z"/>
 </g>
</svg>
