<?xml version="1.0" encoding="UTF-8"?>
<!DOCTYPE svg PUBLIC "-//W3C//DTD SVG 1.1//EN" "http://www.w3.org/Graphics/SVG/1.1/DTD/svg11.dtd">
<!-- Creator: CorelDRAW -->
<svg xmlns="http://www.w3.org/2000/svg" xml:space="preserve" width="279.4mm" height="215.9mm" version="1.1" style="shape-rendering:geometricPrecision; text-rendering:geometricPrecision; image-rendering:optimizeQuality; fill-rule:evenodd; clip-rule:evenodd"
viewBox="0 0 27940 21590"
 xmlns:xlink="http://www.w3.org/1999/xlink"
 xmlns:xodm="http://www.corel.com/coreldraw/odm/2003">
 <defs>
  <style type="text/css">
   <![CDATA[
    .fil0 {fill:white}
   ]]>
  </style>
 </defs>
 <g id="Capa_x0020_1">
  <metadata id="CorelCorpID_0Corel-Layer"/>
  <path class="fil0" d="M10744.68 11700.36c1033.18,-1033.18 2066.35,-2066.35 3099.53,-3099.53 69.28,-69.28 182.3,-69.28 251.58,0 1033.18,1033.18 2066.35,2066.35 3099.53,3099.53 180.73,-180.73 361.45,-361.45 542.18,-542.18 -1213.9,-1213.9 -2427.81,-2427.81 -3641.71,-3641.71 -69.28,-69.28 -182.3,-69.28 -251.58,0 -1213.9,1213.9 -2427.81,2427.81 -3641.71,3641.71 180.73,180.73 361.45,361.45 542.18,542.18zm5532.57 918.07c0,526.96 0,1053.93 0,1580.89 -526.97,0 -1053.93,0 -1580.9,0 0,-645.72 0,-1291.45 0,-1937.17 -242.12,0 -484.23,0 -726.35,0 -242.12,0 -484.23,0 -726.35,0 0,645.72 0,1291.45 0,1937.17 -526.97,0 -1053.93,0 -1580.9,0 0,-526.96 0,-1053.93 0,-1580.89 0,-317.82 0,-635.64 0,-953.46 0,-202.88 72.32,-377.46 215.78,-520.92 655.22,-655.22 1310.45,-1310.45 1965.68,-1965.68 69.28,-69.28 182.3,-69.28 251.58,0 655.23,655.23 1310.46,1310.46 1965.68,1965.68 143.46,143.46 215.78,318.04 215.78,520.92 0,317.82 0,635.64 0,953.46z"/>
 </g>
</svg>
