<?xml version="1.0" encoding="UTF-8"?>
<!DOCTYPE svg PUBLIC "-//W3C//DTD SVG 1.1//EN" "http://www.w3.org/Graphics/SVG/1.1/DTD/svg11.dtd">
<!-- Creator: CorelDRAW -->
<svg xmlns="http://www.w3.org/2000/svg" xml:space="preserve" width="279.4mm" height="215.9mm" version="1.1" style="shape-rendering:geometricPrecision; text-rendering:geometricPrecision; image-rendering:optimizeQuality; fill-rule:evenodd; clip-rule:evenodd"
viewBox="0 0 27940 21590"
 xmlns:xlink="http://www.w3.org/1999/xlink"
 xmlns:xodm="http://www.corel.com/coreldraw/odm/2003">
 <defs>
  <style type="text/css">
   <![CDATA[
    .fil0 {fill:white}
   ]]>
  </style>
 </defs>
 <g id="Capa_x0020_1">
  <metadata id="CorelCorpID_0Corel-Layer"/>
  <path class="fil0" d="M12948.64 10560.14l41.8 -186.66c25.34,-79.58 65.96,-71.95 279.55,-145.89 182.71,-63.24 354,-121.47 568.76,-110.17 1363.06,71.69 -76.6,2027.32 344.71,2340.43 152.98,113.69 393.7,13.35 551.27,-21.68 -57.71,293.23 -28.26,221.85 -326.82,335.49 -327.15,124.54 -806.4,193.65 -1049.33,-89.52 -130.16,-151.72 -148.1,-276.96 -121.72,-523.57 54.85,-512.81 503.85,-1434.99 257.16,-1619.03 -162.66,-121.36 -396.28,-1.63 -545.38,20.6zm-1271.64 2756.04l0 1868.93 773.22 -1339.26c539.35,268.95 1164.64,401.08 1835.42,343.58 1773.33,-152.01 3247.46,-1733.53 3078.13,-3708.75 -152.48,-1778.52 -1729.39,-3239.07 -3705.17,-3077.81 -1774.99,144.88 -3251.15,1737.08 -3081.16,3709.89 73.6,854.26 478.75,1638.65 1099.56,2203.42zm2488.44 -4603.36c295.29,-68.46 558.5,135.04 613.83,364.59 71.67,297.39 -154.29,537.04 -390.33,583.74 -668.07,132.16 -910.55,-789.06 -223.5,-948.33z"/>
 </g>
</svg>
