<?xml version="1.0" encoding="UTF-8"?>
<!DOCTYPE svg PUBLIC "-//W3C//DTD SVG 1.1//EN" "http://www.w3.org/Graphics/SVG/1.1/DTD/svg11.dtd">
<!-- Creator: CorelDRAW -->
<svg xmlns="http://www.w3.org/2000/svg" xml:space="preserve" width="279.4mm" height="215.9mm" version="1.1" style="shape-rendering:geometricPrecision; text-rendering:geometricPrecision; image-rendering:optimizeQuality; fill-rule:evenodd; clip-rule:evenodd"
viewBox="0 0 27940 21590"
 xmlns:xlink="http://www.w3.org/1999/xlink"
 xmlns:xodm="http://www.corel.com/coreldraw/odm/2003">
 <defs>
  <style type="text/css">
   <![CDATA[
    .fil0 {fill:white}
   ]]>
  </style>
 </defs>
 <g id="Capa_x0020_1">
  <metadata id="CorelCorpID_0Corel-Layer"/>
  <path class="fil0" d="M13951.66 8984.48c605.31,0 1096.01,490.71 1096.01,1096.02 0,605.31 -490.7,1096.01 -1096.01,1096.01 -605.32,0 -1096.02,-490.7 -1096.02,-1096.01 0,-605.31 490.7,-1096.02 1096.02,-1096.02zm18.32 -971.53c1536.47,0 2782.03,1245.56 2782.03,2782.03 0,695.86 -255.49,1332.03 -677.76,1819.88 -75.45,-642.09 -625.21,-1144.53 -1286.71,-1144.53l-1673.53 0c-647.97,0 -1188.72,482.09 -1281.5,1105.3 -402.38,-482.49 -644.58,-1103.26 -644.58,-1780.65 0,-1536.47 1245.56,-2782.03 2782.05,-2782.03zm0 -622.23c1880.13,0 3404.26,1524.13 3404.26,3404.26 0,1880.15 -1524.13,3404.28 -3404.26,3404.28 -1880.14,0 -3404.28,-1524.13 -3404.28,-3404.28 0,-1880.13 1524.14,-3404.26 3404.28,-3404.26z"/>
 </g>
</svg>
