<?xml version="1.0" encoding="UTF-8"?>
<!DOCTYPE svg PUBLIC "-//W3C//DTD SVG 1.1//EN" "http://www.w3.org/Graphics/SVG/1.1/DTD/svg11.dtd">
<!-- Creator: CorelDRAW -->
<svg xmlns="http://www.w3.org/2000/svg" xml:space="preserve" width="279.4mm" height="215.9mm" version="1.1" style="shape-rendering:geometricPrecision; text-rendering:geometricPrecision; image-rendering:optimizeQuality; fill-rule:evenodd; clip-rule:evenodd"
viewBox="0 0 27940 21590"
 xmlns:xlink="http://www.w3.org/1999/xlink"
 xmlns:xodm="http://www.corel.com/coreldraw/odm/2003">
 <defs>
  <style type="text/css">
   <![CDATA[
    .fil0 {fill:white}
   ]]>
  </style>
 </defs>
 <g id="Capa_x0020_1">
  <metadata id="CorelCorpID_0Corel-Layer"/>
  <path class="fil0" d="M11745.03 7777.11c72.28,421.72 109.7,1048.77 171.6,1503.26 34.53,253.52 54.68,502.53 82.33,759.55 31.71,294.74 422.19,3669.57 417.25,3774.35l-1432.88 1.85 152.37 -2817.03c11.57,-127.94 5.76,-275.7 19.76,-410.17 26.39,-253.51 23.79,-529.64 47.32,-794.9 22.81,-257.2 29.8,-542.18 45.62,-803.68 4.72,-78.06 56.83,-1186.28 73.26,-1203.46 26,-27.18 357.86,-13.41 423.37,-9.77zm3740.25 4493.19c0,42.15 19.56,34.67 59.64,34.67l692.91 -1.78 -0.98 -750.3 -691.93 -1.42c-40.13,0 -59.64,-7.59 -59.64,34.67l0 684.16zm-813.24 34.67c40.14,0 59.64,7.58 59.64,-34.67l0 -684.16c0,-42.16 -19.56,-34.67 -60.01,-34.67l-692.54 1.77 0.98 750.31 691.93 1.42zm-1828.06 -1567.92c47.35,-47.1 1245.97,-890.21 1297.24,-913.1 41.12,27.52 165.99,222.03 197.53,266.77 100.63,142.76 525.34,776.46 569.2,806.88 91.9,-45.13 2026.31,-994.03 2088.32,-999.75 2.75,395.1 22.06,3840.99 -9.74,3908.41 -25.73,25.74 -2480.74,10 -2857.1,10 -159.34,0 -847.36,20.1 -947.37,-7.17l-338.08 -3072.04zm-2658.03 3828.82c87.17,13.27 7543.77,1.48 7547.74,-0.9 34.66,-20.78 16.34,-341.52 16.34,-395.55l0 -3786.46c0,-558.1 11.9,-1129.19 -0.77,-1685.67 -53.92,4.56 -550,254.6 -650.92,303.16l-1942.68 932.35c-51.28,-38.11 -341.15,-483.33 -409.2,-579.1 -76.17,-107.2 -137.2,-199.09 -203.3,-293.24 -35.72,-50.87 -63.09,-93.29 -99.94,-146.69 -30.41,-44.07 -75.59,-120.29 -113.26,-148.09l-1181.52 837.22c-72.4,51.58 -352.88,268.93 -406.66,271.51 -37.06,-485.1 -118.11,-975.85 -160,-1461.14 -21.07,-244.07 -55.71,-475.24 -78.47,-719.86l-61.2 -542.22c-9.1,-98.71 15.72,-130.14 -80.76,-130.61 -538.66,-2.58 -1078.41,3.16 -1617.35,1.27 -155.22,-0.54 -151.26,-52.03 -161.33,234.85 -4.71,134.13 -17.32,265.94 -20.84,389.45 -7.16,250.39 -21.81,534.67 -38.78,787.61l-131.78 2291.31c-14.83,254.93 -33.29,518.28 -42,778.53 -6.11,182.85 -179.37,2994.3 -163.32,3062.27z"/>
 </g>
</svg>
