<?xml version="1.0" encoding="UTF-8"?>
<!DOCTYPE svg PUBLIC "-//W3C//DTD SVG 1.1//EN" "http://www.w3.org/Graphics/SVG/1.1/DTD/svg11.dtd">
<!-- Creator: CorelDRAW -->
<svg xmlns="http://www.w3.org/2000/svg" xml:space="preserve" width="279.4mm" height="215.9mm" version="1.1" style="shape-rendering:geometricPrecision; text-rendering:geometricPrecision; image-rendering:optimizeQuality; fill-rule:evenodd; clip-rule:evenodd"
viewBox="0 0 27940 21590"
 xmlns:xlink="http://www.w3.org/1999/xlink"
 xmlns:xodm="http://www.corel.com/coreldraw/odm/2003">
 <defs>
  <style type="text/css">
   <![CDATA[
    .fil0 {fill:white}
   ]]>
  </style>
 </defs>
 <g id="Capa_x0020_1">
  <metadata id="CorelCorpID_0Corel-Layer"/>
  <path class="fil0" d="M15753.58 9154.54l-1262.89 0c-143.06,0 -260.04,-116.98 -260.04,-260.04l0 -1439.87 1522.93 1699.91zm-4302.47 -1763.89l2605.34 0 0 1576.17c0,231.18 188.93,420.11 419.99,420.11l1202.89 0c45.88,0 90.19,-7.48 131.47,-21.24l0 969.29c-910.74,0 -1648.96,738.22 -1648.96,1648.96 0,905.55 729.77,1640.52 1633.39,1648.85 -68.81,322.45 -356.98,566.56 -699.11,566.56l-3645.01 0c-392.96,0 -714.69,-321.61 -714.69,-714.69l0 -5379.33c0,-393.08 321.61,-714.68 714.69,-714.68zm4359.69 3200.5c769.25,0 1392.79,623.54 1392.79,1392.79 0,769.26 -623.54,1392.79 -1392.79,1392.79 -769.25,0 -1392.79,-623.53 -1392.79,-1392.79 0,-769.25 623.54,-1392.79 1392.79,-1392.79zm404.43 1041.73c-6.28,-6.28 -23.3,-17.87 -51.31,-34.89 -27.77,-17.14 -62.78,-34.89 -104.55,-53.48 -41.89,-18.71 -87.64,-35.01 -137.14,-48.77 -49.74,-14.01 -99.23,-21.01 -148.85,-21.01 -65.19,0 -115.17,11.59 -150.06,34.77 -34.77,23.3 -52.27,57.46 -52.27,102.37 0,27.89 7.72,51.19 23.17,69.78 15.58,18.71 37.67,35.25 66.4,49.98 28.49,14.73 64.23,28.25 106.84,40.81 42.74,12.31 91.99,26.31 147.77,41.77 79.07,21.73 150.3,45.27 213.92,70.98 63.5,25.6 117.83,57.35 162.86,95.37 44.91,37.91 79.31,84.03 103.46,138.35 24.02,54.21 36.09,119.28 36.09,195.33 0,93.08 -17.5,171.67 -52.51,236.14 -34.77,64.22 -80.89,116.26 -138.35,155.61 -57.34,39.72 -123.62,68.33 -198.83,86.2 -24.63,5.79 -49.38,10.74 -74.37,14.61l0 368.69 -397.78 0 0 -380.04c-43.95,-8.45 -86.8,-18.23 -128.94,-31.15 -60.48,-17.86 -119.39,-39.11 -176.74,-64.1 -57.46,-24.75 -110.22,-53.48 -158.26,-85.96l167.56 -332.59c7.73,7.85 28.61,22.57 62.78,44.3 34.04,21.61 76.05,43.34 125.55,65.07 49.62,21.73 105.39,41.05 167.44,58.07 62.06,17.02 124.83,25.72 188.33,25.72 134.85,0 202.34,-41.17 202.34,-123.38 0,-31.03 -10.02,-56.5 -30.19,-76.78 -20.16,-20.16 -48.04,-38.27 -83.66,-54.69 -35.73,-16.3 -77.5,-31.27 -125.55,-45.27 -48.17,-14.01 -100.8,-29.46 -158.27,-46.48 -76.05,-23.3 -141.85,-48.41 -197.62,-75.57 -55.78,-27.17 -102.38,-58.56 -139.56,-94.17 -37.3,-35.73 -64.83,-76.78 -82.57,-123.26 -17.75,-46.6 -26.81,-100.8 -26.81,-162.85 0,-86.8 16.3,-163.58 49.02,-230.22 32.47,-66.64 76.66,-122.9 132.43,-168.53 55.9,-45.76 120.48,-80.29 194.25,-103.59l18.47 -5.55 0 -385.83 397.78 0 0 374.72c51.79,10.39 101.41,24.03 148.85,39.96 50.35,17.03 98.03,36.34 143.06,58.07 44.91,21.73 85.11,43.46 120.85,65.19l-165.03 316.3z"/>
 </g>
</svg>
