<?xml version="1.0" encoding="UTF-8"?>
<!DOCTYPE svg PUBLIC "-//W3C//DTD SVG 1.1//EN" "http://www.w3.org/Graphics/SVG/1.1/DTD/svg11.dtd">
<!-- Creator: CorelDRAW -->
<svg xmlns="http://www.w3.org/2000/svg" xml:space="preserve" width="279.4mm" height="215.9mm" version="1.1" style="shape-rendering:geometricPrecision; text-rendering:geometricPrecision; image-rendering:optimizeQuality; fill-rule:evenodd; clip-rule:evenodd"
viewBox="0 0 27940 21590"
 xmlns:xlink="http://www.w3.org/1999/xlink"
 xmlns:xodm="http://www.corel.com/coreldraw/odm/2003">
 <defs>
  <style type="text/css">
   <![CDATA[
    .fil0 {fill:white}
   ]]>
  </style>
 </defs>
 <g id="Capa_x0020_1">
  <metadata id="CorelCorpID_0Corel-Layer"/>
  <path class="fil0" d="M16294.42 9187.3c0,-444.64 0,-889.29 0,-1333.93 0,-254.45 -208.18,-462.63 -462.63,-462.63 -1633.15,0 -3266.31,0 -4899.46,0 -254.45,0 -462.62,208.18 -462.62,462.63l0 5896.1c1031.38,569.91 2062.78,1139.82 3094.15,1709.73 106.38,58.78 226.41,57.37 331.37,-3.9 104.97,-61.28 165.21,-165.11 166.33,-286.64 4.34,-473.06 8.7,-946.13 13.05,-1419.19 585.73,0 1171.46,0 1757.18,0 254.45,0 462.63,-208.18 462.63,-462.62 0,-708.43 0,-1416.86 0,-2125.28 -268.43,0 -536.85,0 -805.27,0 0,594.21 0,1188.41 0,1782.63 -469.05,0 -938.09,0 -1407.14,0 10.6,-1153.73 21.21,-2307.46 31.81,-3461.16 1.18,-128.58 -64.86,-239.42 -178.51,-299.58 -620.3,-328.35 -1240.6,-656.74 -1860.91,-985.1l-6.23 -0.01 0 -2.34 3420.98 0c0,330.43 0,660.86 0,991.29 268.42,0 536.84,0 805.27,0zm-1122.04 574.68l2065.74 0 -501.55 -508.94c-179.8,-182.45 -178.81,-478.41 3.2,-658.66 182.02,-180.24 478.86,-179.23 658.67,3.22l1276.26 1295.03c75.56,76.66 119.18,173.4 130.87,273.15 2.72,20.28 4.16,40.95 4.16,61.94 0,69.12 -15.28,134.84 -42.6,193.98 -22.05,48.7 -52.86,94.36 -92.43,134.51l-1276.26 1295.03c-179.81,182.45 -476.65,183.47 -658.67,3.22 -182.01,-180.25 -183,-476.21 -3.2,-658.65l495.05 -502.34 -2059.24 0c-256.15,0 -465.74,-209.58 -465.74,-465.75 0,-256.16 209.58,-465.74 465.74,-465.74z"/>
 </g>
</svg>
