<?xml version="1.0" encoding="UTF-8"?>
<!DOCTYPE svg PUBLIC "-//W3C//DTD SVG 1.1//EN" "http://www.w3.org/Graphics/SVG/1.1/DTD/svg11.dtd">
<!-- Creator: CorelDRAW -->
<svg xmlns="http://www.w3.org/2000/svg" xml:space="preserve" width="279.4mm" height="215.9mm" version="1.1" style="shape-rendering:geometricPrecision; text-rendering:geometricPrecision; image-rendering:optimizeQuality; fill-rule:evenodd; clip-rule:evenodd"
viewBox="0 0 27940 21590"
 xmlns:xlink="http://www.w3.org/1999/xlink"
 xmlns:xodm="http://www.corel.com/coreldraw/odm/2003">
 <defs>
  <style type="text/css">
   <![CDATA[
    .fil0 {fill:white}
   ]]>
  </style>
 </defs>
 <g id="Capa_x0020_1">
  <metadata id="CorelCorpID_0Corel-Layer"/>
  <path class="fil0" d="M15776.68 11140.32c577,0 1044.58,467.58 1044.58,1044.47 0,577 -467.58,1044.58 -1044.58,1044.58 -576.88,0 -1044.58,-467.58 -1044.58,-1044.58 0,-576.89 467.7,-1044.47 1044.58,-1044.47zm-1959 -2161.44c603.25,0 1092.27,489.01 1092.27,1092.14 0,203.98 -56,394.94 -153.36,558.26 -173.51,114.11 -326.87,256.34 -453.4,420.36 -146.33,72.76 -311.06,113.65 -485.51,113.65 -603.13,0 -1092.14,-489.02 -1092.14,-1092.27 0,-603.13 489.01,-1092.14 1092.14,-1092.14zm18.28 -968.08c1440.34,0 2623.99,1098.47 2759.3,2503.43 242.99,119.27 456.1,290.09 625.28,497.92 5.03,-75.68 7.85,-152.07 7.85,-229.04 0,-1873.59 -1518.84,-3392.43 -3392.43,-3392.43 -1873.59,0 -3392.42,1518.84 -3392.42,3392.43 0,1873.59 1518.83,3392.42 3392.42,3392.42 453.64,0 886.3,-89.15 1281.83,-250.71 -702.13,-266.07 -1201.22,-944.76 -1201.22,-1740.03 0,-258.69 52.83,-504.95 148.32,-728.73l-1081.96 0c-645.65,0 -1184.58,480.47 -1277.02,1101.52 -401.03,-480.81 -642.26,-1099.41 -642.26,-1774.47 0,-1531.14 1241.17,-2772.31 2772.31,-2772.31zm1940.72 2696.74c815.89,0 1477.36,661.36 1477.36,1477.25 0,364.01 -131.8,697.2 -350.06,954.72 66.89,69.71 133.79,139.53 200.57,209.24 62.45,65.02 134.61,103.1 223.54,117.63 62.79,10.19 125.47,20.5 188.15,30.69 88.11,14.41 159.69,51.79 221.78,115.76 239.01,246.38 478.12,492.76 717.13,739.03 67.71,69.82 101.1,154.06 99.46,251.3 -1.52,97.24 -37.72,180.31 -107.66,247.91 -6.33,6.21 -12.77,12.42 -19.22,18.63 -138.24,133.32 -358.5,131.33 -494.29,-4.46 -253.76,-253.76 -507.53,-507.52 -761.29,-761.41 -64.09,-63.96 -100.64,-137.54 -112.94,-227.4 -5.51,-39.13 -10.9,-78.38 -16.29,-117.63 -12.3,-89.74 -48.85,-163.31 -112.94,-227.4 -69.94,-69.94 -139.88,-139.89 -209.83,-209.83 -255.87,212.64 -584.73,340.58 -943.47,340.58 -815.89,0 -1477.24,-661.47 -1477.24,-1477.36 0,-815.89 661.35,-1477.25 1477.24,-1477.25z"/>
 </g>
</svg>
