<?xml version="1.0" encoding="UTF-8"?>
<!DOCTYPE svg PUBLIC "-//W3C//DTD SVG 1.1//EN" "http://www.w3.org/Graphics/SVG/1.1/DTD/svg11.dtd">
<!-- Creator: CorelDRAW -->
<svg xmlns="http://www.w3.org/2000/svg" xml:space="preserve" width="279.4mm" height="215.9mm" version="1.1" style="shape-rendering:geometricPrecision; text-rendering:geometricPrecision; image-rendering:optimizeQuality; fill-rule:evenodd; clip-rule:evenodd"
viewBox="0 0 27940 21590"
 xmlns:xlink="http://www.w3.org/1999/xlink"
 xmlns:xodm="http://www.corel.com/coreldraw/odm/2003">
 <defs>
  <style type="text/css">
   <![CDATA[
    .fil0 {fill:white}
   ]]>
  </style>
 </defs>
 <g id="Capa_x0020_1">
  <metadata id="CorelCorpID_0Corel-Layer"/>
  <path class="fil0" d="M16930.94 10305.75c-94.2,98.78 -188.47,197.53 -282.71,296.31 192.42,192.42 384.84,384.83 577.25,577.25 97.86,-97.86 195.72,-195.72 293.54,-293.54 94.11,-94.11 94.07,-247.58 0,-341.7 -80.83,-80.82 -161.61,-161.61 -242.39,-242.39 -47.77,-47.76 -106.16,-71.56 -173.69,-70.76 -67.54,0.77 -125.37,25.94 -172,74.83zm-4763.52 -2915.07l2605.23 0 0 1576.21c0,231.08 188.99,420.07 420.06,420.07l1202.86 0c45.87,0 90.13,-7.45 131.53,-21.22l0 1054.98 -1699.16 1705.97 -182.87 183.63c-62.06,248.76 -127.46,496.99 -191.45,745.3 -21.67,84.09 2.05,173.65 62.54,235.95 60.65,62.5 148.68,88.76 233.65,69.67l751.1 -175.26 200.19 -186.13 826 -820.61 0 1305.39c0,393.01 -321.69,714.69 -714.69,714.69l-3644.99 0c-393,0 -714.69,-321.6 -714.69,-714.69l0 -5379.26c0,-393.09 321.61,-714.69 714.69,-714.69zm4302.41 1763.84l-1262.94 0c-143,0 -259.99,-116.99 -259.99,-260l0 -1439.89 1522.93 1699.89zm608.54 2291.67c23.52,25.53 47,51.06 70.52,76.59 -147.24,147.23 -294.47,294.46 -441.74,441.74 -31.49,31.53 -31.49,82.91 0,114.45 10.91,10.91 21.87,21.86 32.78,32.78 31.53,31.49 82.92,31.49 114.45,0 186.82,-186.82 373.6,-373.64 560.38,-560.42 -73.58,-73.57 -147.2,-147.19 -220.77,-220.76 -38.54,38.54 -77.08,77.08 -115.62,115.62zm-1673.15 1553.54c-191.12,-191.13 -382.29,-382.3 -573.42,-573.42 -58.55,227.17 -117.15,454.34 -175.66,681.5 -3.62,13.98 0.04,27.75 10.07,38.1 10.07,10.35 23.68,14.46 37.77,11.28 233.74,-52.48 467.51,-104.95 701.24,-157.46zm-514.3 -639.95c562.07,-564.32 1124.17,-1128.64 1686.24,-1692.96 194.14,196.4 388.33,392.8 582.48,589.21 -563.19,559.52 -1126.43,1119.09 -1689.62,1678.62 -193.02,-191.61 -386.08,-383.26 -579.1,-574.87z"/>
 </g>
</svg>
