<?xml version="1.0" encoding="UTF-8"?>
<!DOCTYPE svg PUBLIC "-//W3C//DTD SVG 1.1//EN" "http://www.w3.org/Graphics/SVG/1.1/DTD/svg11.dtd">
<!-- Creator: CorelDRAW -->
<svg xmlns="http://www.w3.org/2000/svg" xml:space="preserve" width="279.4mm" height="215.9mm" version="1.1" style="shape-rendering:geometricPrecision; text-rendering:geometricPrecision; image-rendering:optimizeQuality; fill-rule:evenodd; clip-rule:evenodd"
viewBox="0 0 27940 21590"
 xmlns:xlink="http://www.w3.org/1999/xlink"
 xmlns:xodm="http://www.corel.com/coreldraw/odm/2003">
 <defs>
  <style type="text/css">
   <![CDATA[
    .fil0 {fill:white}
   ]]>
  </style>
 </defs>
 <g id="Capa_x0020_1">
  <metadata id="CorelCorpID_0Corel-Layer"/>
  <path class="fil0" d="M14719.71 7624.16c455.27,107.27 873.66,310.08 1232.87,586.08l815.2 -272.33 604.84 758.47 -456.27 708c191.13,404.3 301.62,854.19 310.44,1328.97l721.36 467.67 -215.88 945.79 -837.82 84.68c-204.03,414.55 -493.56,779.43 -845.65,1071.55l84.1 855.35 -874.05 420.91 -588.74 -602.4c-225.54,49.41 -459.74,75.67 -700.11,75.67 -227.99,0 -450.49,-23.5 -665.25,-68.08l-615.81 598.57 -874.04 -420.92 103.98 -836.53c-355.38,-288.4 -648.83,-650.11 -857.32,-1062.11l-851.91 -108.26 -215.87 -945.79 718.98 -440.34c3.71,-475.29 109.19,-926.35 295.74,-1332.43l-446.52 -733.54 604.86 -758.47 792.34 287.49c356.39,-280.06 772.64,-487.38 1226.39,-599.6l295.05 -806.32 970.11 0.02 268.98 797.9zm-749.71 1187.12c1095.57,0 1983.72,888.15 1983.72,1983.72 0,1095.57 -888.15,1983.72 -1983.72,1983.72 -1095.57,0 -1983.72,-888.15 -1983.72,-1983.72 0,-1095.57 888.15,-1983.72 1983.72,-1983.72zm0 755.43c678.36,0 1228.29,549.93 1228.29,1228.29 0,678.36 -549.93,1228.29 -1228.29,1228.29 -678.36,0 -1228.29,-549.93 -1228.29,-1228.29 0,-678.36 549.93,-1228.29 1228.29,-1228.29z"/>
 </g>
</svg>
