<?xml version="1.0" encoding="UTF-8"?>
<!DOCTYPE svg PUBLIC "-//W3C//DTD SVG 1.1//EN" "http://www.w3.org/Graphics/SVG/1.1/DTD/svg11.dtd">
<!-- Creator: CorelDRAW -->
<svg xmlns="http://www.w3.org/2000/svg" xml:space="preserve" width="279.4mm" height="215.9mm" version="1.1" style="shape-rendering:geometricPrecision; text-rendering:geometricPrecision; image-rendering:optimizeQuality; fill-rule:evenodd; clip-rule:evenodd"
viewBox="0 0 27940 21590"
 xmlns:xlink="http://www.w3.org/1999/xlink"
 xmlns:xodm="http://www.corel.com/coreldraw/odm/2003">
 <defs>
  <style type="text/css">
   <![CDATA[
    .fil0 {fill:white}
   ]]>
  </style>
 </defs>
 <g id="Capa_x0020_1">
  <metadata id="CorelCorpID_0Corel-Layer"/>
  <path class="fil0" d="M13970 2748.81c4443.79,0 8046.19,3602.4 8046.19,8046.19 0,4443.79 -3602.4,8046.19 -8046.19,8046.19 -4443.79,0 -8046.19,-3602.4 -8046.19,-8046.19 0,-4443.79 3602.4,-8046.19 8046.19,-8046.19zm4915.29 13319.62c-43.78,-11.48 -95.67,-36.85 -163.26,-76.38 -1062.6,-621.47 -3033.79,-1064.29 -3171.12,-1951.8 -29.06,-187.79 -69.47,-1084.94 -11.69,-1214.54 84.77,-240.6 387.83,12.48 516.69,-470.34l298.69 -1118.85c27.11,-15.39 60.71,-36.35 103.69,-70.61 236.15,-188.24 323.37,-602.35 318.16,-971.79 -9.03,-639.51 -306.3,-65.8 -91.88,-985.84 764.75,-3281.53 -1037.59,-3337.42 -1268.04,-3493.31 -283.45,-191.73 -294.94,-356.82 -813.3,-458.43 -715.64,-140.29 -1646.28,-31.63 -2227.71,273.9 -549.61,288.81 -943.16,705.6 -1127.52,1414.9 -192.5,740.66 -101.31,1589.93 47.23,2329.68 140.36,699.06 -153.27,382.91 -131.39,1026.29 13.3,391.33 121.45,733.76 379.53,908.32 11.22,7.59 21.57,14.41 31.2,20.65l303.87 1138.27c142.07,532.28 503.07,199.82 545.12,544.66 24.95,144.02 0.06,1106.15 -36.23,1237.1 -189.8,684.82 -1703.63,1153.05 -2385.89,1458.99 -601.48,269.71 -810.2,434.68 -940.85,464.6 -1414.74,-1316.31 -2300.03,-3194.07 -2300.03,-5278.9 0,-3981.67 3227.77,-7209.44 7209.44,-7209.44 3981.67,0 7209.44,3227.77 7209.44,7209.44 0,2081.94 -882.84,3957.39 -2294.15,5273.43z"/>
 </g>
</svg>
